<?xml version="1.0" standalone="no"?><!DOCTYPE svg PUBLIC "-//W3C//DTD SVG 1.1//EN" "http://www.w3.org/Graphics/SVG/1.1/DTD/svg11.dtd"><svg class="icon" width="16px" height="16.00px" viewBox="0 0 1024 1024" version="1.1" xmlns="http://www.w3.org/2000/svg"><path fill="#000000" d="M924.74288 850.52504h-73.822332v73.965595c0 18.372439-10.804067 29.580712-29.089525 29.580713-18.329461 0-29.970592-11.208273-29.970592-29.580713v-73.965595h-73.82131c-18.35709 0-29.567409-11.207249-29.567409-29.55206 0-18.385742 11.209296-29.594015 29.567409-29.594015h73.82131V717.412346c0-18.372439 11.641131-29.508058 29.970592-29.508057 18.285458 0 29.089525 11.135618 29.089525 29.508057v73.966619h73.822332c18.284435 0 29.551036 11.251252 29.551037 29.594015 0 18.372439-11.266601 29.55206-29.551037 29.55206z m-147.672294-236.629325c-68.997444-66.441225-162.504094-103.554494-265.778202-103.554494-212.046441 0-383.925043 157.385517-383.925043 369.762485 0 14.72026-1.573845 29.205159-0.057305 43.504839 0 0.318248 0.057305 0.563842 0.057305 0.881067 0 16.335037-13.201673 29.580712-29.523407 29.580712-16.320711 0-29.55206-13.245675-29.55206-29.580712-1.428535-14.588253 0-29.4221 0-44.385906 0-200.318328 132.621507-359.601054 314.64005-411.151128-56.228629-40.232306-93.015464-105.97973-93.015463-180.473351 0-122.525568 99.19828-221.825155 221.592864-221.825154s221.61026 99.299587 221.61026 221.825154c0 75.192539-37.438681 141.540643-94.577029 181.66448 50.495044 15.180747 97.363492 38.794561 138.52803 69.784366 0 0 31.804357 20.941961 29.55206 44.384883-3.221368 33.308617-29.55206 29.582759-29.55206 29.582759zM674.015466 288.48025c0-89.846284-72.752977-162.692383-162.506141-162.692382-89.75214 0-162.517397 72.846098-162.517398 162.692382 0 89.883123 72.765257 162.721035 162.517398 162.721036 89.753163 0.001023 162.506141-72.837912 162.506141-162.721036z" /></svg>